<?xml version="1.0" encoding="UTF-8"?>
<svg width="16px" height="16px" viewBox="0 0 16 16" version="1.1" xmlns="http://www.w3.org/2000/svg" xmlns:xlink="http://www.w3.org/1999/xlink">
    <title>lock</title>
    <g id="页面-1" stroke="none" stroke-width="1" fill="none" fill-rule="evenodd">
        <g id="登录" transform="translate(-533.000000, -572.000000)" fill-rule="nonzero">
            <g id="lock" transform="translate(533.000000, 572.000000)">
                <rect id="矩形" fill="#000000" opacity="0" x="0" y="0" width="16" height="16"></rect>
                <path d="M13,7.25 L11.9375,7.25 L11.9375,3.75 C11.9375,2.6453125 11.0421875,1.75 9.9375,1.75 L6.0625,1.75 C4.9578125,1.75 4.0625,2.6453125 4.0625,3.75 L4.0625,7.25 L3,7.25 C2.7234375,7.25 2.5,7.4734375 2.5,7.75 L2.5,13.75 C2.5,14.0265625 2.7234375,14.25 3,14.25 L13,14.25 C13.2765625,14.25 13.5,14.0265625 13.5,13.75 L13.5,7.75 C13.5,7.4734375 13.2765625,7.25 13,7.25 Z M5.1875,3.75 C5.1875,3.2671875 5.5796875,2.875 6.0625,2.875 L9.9375,2.875 C10.4203125,2.875 10.8125,3.2671875 10.8125,3.75 L10.8125,7.25 L5.1875,7.25 L5.1875,3.75 Z M12.375,13.125 L3.625,13.125 L3.625,8.375 L12.375,8.375 L12.375,13.125 Z M7.5625,10.953125 L7.5625,11.78125 C7.5625,11.85 7.61875,11.90625 7.6875,11.90625 L8.3125,11.90625 C8.38125,11.90625 8.4375,11.85 8.4375,11.78125 L8.4375,10.953125 C8.6265625,10.8171875 8.75,10.5953125 8.75,10.34375 C8.75,9.9296875 8.4140625,9.59375 8,9.59375 C7.5859375,9.59375 7.25,9.9296875 7.25,10.34375 C7.25,10.5953125 7.3734375,10.8171875 7.5625,10.953125 Z" id="形状" fill="#FFFFFF" opacity="0.65"></path>
            </g>
        </g>
    </g>
</svg>